<?xml version="1.0" standalone="no"?>
 <!DOCTYPE svg PUBLIC "-//W3C//DTD SVG 1.1//EN" 
 "http://www.w3.org/Graphics/SVG/1.1/DTD/svg11.dtd"> 
<svg
  xmlns:svg="http://www.w3.org/2000/svg"
  xmlns="http://www.w3.org/2000/svg"
  xmlns:xlink="http://www.w3.org/1999/xlink"
  version="1.1"
  width="40.1828mm" height="60.1980mm" viewBox="0.0000 0.0000 40.1828 60.1980">
<title>SVG Image created as 4x6_wordshop-F_Silkscreen.svg date 2024/11/05 09:37:10 </title>
  <desc>Image generated by PCBNEW </desc>
<g style="fill:#000000; fill-opacity:1.0000;stroke:#000000; stroke-opacity:1.0000;
stroke-linecap:round; stroke-linejoin:round;"
 transform="translate(0 0) scale(1 1)">
<path style="fill:none; 
stroke:#F2EDA1; stroke-width:0.0500; stroke-opacity:1; 
stroke-linecap:round; stroke-linejoin:round;fill:none"
d="M 31.1050,20.7900
37.1050,20.7900
37.1050,26.7900
31.1050,26.7900
Z" /> 
<path style="fill:none; 
stroke:#F2EDA1; stroke-width:0.0500; stroke-opacity:1; 
stroke-linecap:round; stroke-linejoin:round;fill:none"
d="M 23.4550,20.7900
29.4550,20.7900
29.4550,26.7900
23.4550,26.7900
Z" /> 
<path style="fill:none; 
stroke:#F2EDA1; stroke-width:0.0500; stroke-opacity:1; 
stroke-linecap:round; stroke-linejoin:round;fill:none"
d="M 22.4800,33.0400
30.4800,33.0400
30.4800,37.0400
22.4800,37.0400
Z" /> 
</g>
<g style="fill:none; 
stroke:#F2EDA1; stroke-width:0.0500; stroke-opacity:1; 
stroke-linecap:round; stroke-linejoin:round;">
<circle cx="26.4800" cy="47.0400" r="11.0000" /> 
</g>
<g style="fill:none; 
stroke:#F2EDA1; stroke-width:0.1500; stroke-opacity:1; 
stroke-linecap:round; stroke-linejoin:round;">
<text x="26.4700" y="9.2000"
textLength="4.5357" font-size="1.3333" lengthAdjust="spacingAndGlyphs"
text-anchor="middle" opacity="0" stroke-opacity="0">REF**</text>
<g class="stroked-text"><desc>REF**</desc>
<path d="M25.1367 9.1548
L24.8033 8.6786
" />
<path d="M24.5652 9.1548
L24.5652 8.1548
" />
<path d="M24.5652 8.1548
L24.9462 8.1548
" />
<path d="M24.9462 8.1548
L25.0414 8.2024
" />
<path d="M25.0414 8.2024
L25.0890 8.2501
" />
<path d="M25.0890 8.2501
L25.1367 8.3453
" />
<path d="M25.1367 8.3453
L25.1367 8.4882
" />
<path d="M25.1367 8.4882
L25.0890 8.5834
" />
<path d="M25.0890 8.5834
L25.0414 8.6310
" />
<path d="M25.0414 8.6310
L24.9462 8.6786
" />
<path d="M24.9462 8.6786
L24.5652 8.6786
" />
<path d="M25.5652 8.6310
L25.8986 8.6310
" />
<path d="M26.0414 9.1548
L25.5652 9.1548
" />
<path d="M25.5652 9.1548
L25.5652 8.1548
" />
<path d="M25.5652 8.1548
L26.0414 8.1548
" />
<path d="M26.8033 8.6310
L26.4700 8.6310
" />
<path d="M26.4700 9.1548
L26.4700 8.1548
" />
<path d="M26.4700 8.1548
L26.9462 8.1548
" />
<path d="M27.4700 8.1548
L27.4700 8.3929
" />
<path d="M27.2319 8.2977
L27.4700 8.3929
" />
<path d="M27.4700 8.3929
L27.7081 8.2977
" />
<path d="M27.3271 8.5834
L27.4700 8.3929
" />
<path d="M27.4700 8.3929
L27.6129 8.5834
" />
<path d="M28.2319 8.1548
L28.2319 8.3929
" />
<path d="M27.9938 8.2977
L28.2319 8.3929
" />
<path d="M28.2319 8.3929
L28.4700 8.2977
" />
<path d="M28.0890 8.5834
L28.2319 8.3929
" />
<path d="M28.2319 8.3929
L28.3748 8.5834
" />
</g><text x="6.1950" y="21.7300"
textLength="1.4881" font-size="1.3333" lengthAdjust="spacingAndGlyphs"
text-anchor="middle" opacity="0" stroke-opacity="0">+</text>
<g class="stroked-text"><desc>+</desc>
<path d="M5.8140 21.3039
L6.5760 21.3039
" />
<path d="M6.1950 21.6848
L6.1950 20.9229
" />
</g><text x="12.5000" y="7.6100"
textLength="4.5357" font-size="1.3333" lengthAdjust="spacingAndGlyphs"
text-anchor="middle" opacity="0" stroke-opacity="0">REF**</text>
<g class="stroked-text"><desc>REF**</desc>
<path d="M11.1667 7.5648
L10.8333 7.0886
" />
<path d="M10.5952 7.5648
L10.5952 6.5648
" />
<path d="M10.5952 6.5648
L10.9762 6.5648
" />
<path d="M10.9762 6.5648
L11.0714 6.6124
" />
<path d="M11.0714 6.6124
L11.1190 6.6601
" />
<path d="M11.1190 6.6601
L11.1667 6.7553
" />
<path d="M11.1667 6.7553
L11.1667 6.8982
" />
<path d="M11.1667 6.8982
L11.1190 6.9934
" />
<path d="M11.1190 6.9934
L11.0714 7.0410
" />
<path d="M11.0714 7.0410
L10.9762 7.0886
" />
<path d="M10.9762 7.0886
L10.5952 7.0886
" />
<path d="M11.5952 7.0410
L11.9286 7.0410
" />
<path d="M12.0714 7.5648
L11.5952 7.5648
" />
<path d="M11.5952 7.5648
L11.5952 6.5648
" />
<path d="M11.5952 6.5648
L12.0714 6.5648
" />
<path d="M12.8333 7.0410
L12.5000 7.0410
" />
<path d="M12.5000 7.5648
L12.5000 6.5648
" />
<path d="M12.5000 6.5648
L12.9762 6.5648
" />
<path d="M13.5000 6.5648
L13.5000 6.8029
" />
<path d="M13.2619 6.7077
L13.5000 6.8029
" />
<path d="M13.5000 6.8029
L13.7381 6.7077
" />
<path d="M13.3571 6.9934
L13.5000 6.8029
" />
<path d="M13.5000 6.8029
L13.6429 6.9934
" />
<path d="M14.2619 6.5648
L14.2619 6.8029
" />
<path d="M14.0238 6.7077
L14.2619 6.8029
" />
<path d="M14.2619 6.8029
L14.5000 6.7077
" />
<path d="M14.1190 6.9934
L14.2619 6.8029
" />
<path d="M14.2619 6.8029
L14.4048 6.9934
" />
</g></g>
<g style="fill:none; 
stroke:#F2EDA1; stroke-width:0.1200; stroke-opacity:1; 
stroke-linecap:round; stroke-linejoin:round;">
<path d="M23.2000 9.7000
L29.7400 9.7000
" />
<path d="M23.2000 10.0300
L23.2000 9.7000
" />
<path d="M23.2000 12.1100
L23.2000 12.4400
" />
<path d="M23.2000 12.4400
L29.7400 12.4400
" />
<path d="M29.7400 9.7000
L29.7400 10.0300
" />
<path d="M29.7400 12.4400
L29.7400 12.1100
" />
<circle cx="10.0050" cy="23.7700" r="6.1000" /> 
<circle cx="12.5000" cy="11.0700" r="2.5000" /> 
<path d="M15.4900 11.0705 A2.9900 2.9900 0.0 0 0 9.9400 9.5252" />
<path d="M9.9400 12.6148 A2.9900 2.9900 0.0 0 0 15.4900 11.0695" />
<path d="M9.9400 9.5250
L9.9400 12.6150
" />
<path style="fill:none; 
stroke:#D0D2CD; stroke-width:0.2000; stroke-opacity:1; 
stroke-linecap:round; stroke-linejoin:round;fill:none"
d="M 0.1000,0.1000
40.1000,0.1000
40.1000,60.1000
0.1000,60.1000
Z" /> 
</g>
<g style="fill:none; 
stroke:#D0D2CD; stroke-width:0.0500; stroke-opacity:1; 
stroke-linecap:round; stroke-linejoin:round;">
<path d="M30.4800 36.0400
L30.4800 37.0400
" />
<path d="M22.4800 36.0400
L22.4800 37.0400
" />
</g> 
</svg>
