%TF.GenerationSoftware,KiCad,Pcbnew,8.0.5*%
%TF.CreationDate,2024-11-05T13:40:53+07:00*%
%TF.ProjectId,4x6_wordshop,3478365f-776f-4726-9473-686f702e6b69,rev?*%
%TF.SameCoordinates,Original*%
%TF.FileFunction,Copper,L1,Top*%
%TF.FilePolarity,Positive*%
%FSLAX46Y46*%
G04 Gerber Fmt 4.6, Leading zero omitted, Abs format (unit mm)*
G04 Created by KiCad (PCBNEW 8.0.5) date 2024-11-05 13:40:53*
%MOMM*%
%LPD*%
G01*
G04 APERTURE LIST*
%TA.AperFunction,ComponentPad*%
%ADD10C,1.600000*%
%TD*%
%TA.AperFunction,ComponentPad*%
%ADD11O,1.600000X1.600000*%
%TD*%
%TA.AperFunction,ComponentPad*%
%ADD12C,2.000000*%
%TD*%
%TA.AperFunction,ComponentPad*%
%ADD13R,2.000000X2.000000*%
%TD*%
%TA.AperFunction,ComponentPad*%
%ADD14C,1.800000*%
%TD*%
%TA.AperFunction,ComponentPad*%
%ADD15R,1.800000X1.800000*%
%TD*%
%TA.AperFunction,ViaPad*%
%ADD16C,2.000000*%
%TD*%
%TA.AperFunction,ViaPad*%
%ADD17C,0.600000*%
%TD*%
%ADD18C,0.050000*%
%ADD19C,0.150000*%
%ADD20C,0.120000*%
%TA.AperFunction,Profile*%
%ADD21C,0.200000*%
%TD*%
%TA.AperFunction,Profile*%
%ADD22C,0.050000*%
%TD*%
G04 APERTURE END LIST*
D10*
%TO.P,REF\u002A\u002A,1*%
%TO.N,N/C*%
X146050000Y-81280000D03*
D11*
%TO.P,REF\u002A\u002A,2*%
X153670000Y-81280000D03*
%TD*%
D12*
%TO.P,REF\u002A\u002A,2*%
%TO.N,N/C*%
X142275000Y-93980000D03*
D13*
%TO.P,REF\u002A\u002A,1*%
X134675000Y-93980000D03*
%TD*%
D14*
%TO.P,REF\u002A\u002A,2*%
%TO.N,N/C*%
X139700000Y-81280000D03*
D15*
%TO.P,REF\u002A\u002A,1*%
X137160000Y-81280000D03*
%TD*%
D16*
%TO.N,*%
X137160000Y-93980000D03*
X139700000Y-93980000D03*
X134620000Y-93980000D03*
X132080000Y-76200000D03*
X139700000Y-81280000D03*
X142240000Y-93980000D03*
X137160000Y-81280000D03*
X145065000Y-109210000D03*
X162560000Y-81280000D03*
X165385000Y-109210000D03*
X132080000Y-124460000D03*
X157480000Y-81280000D03*
D17*
X157040000Y-93965000D03*
X163040000Y-93965000D03*
X157040000Y-81295000D03*
X163040000Y-81295000D03*
D16*
X165100000Y-124460000D03*
X162560000Y-93980000D03*
X157480000Y-93980000D03*
X165100000Y-76200000D03*
D17*
X145075000Y-109220000D03*
X165075000Y-109220000D03*
%TD*%
D18*
X157040000Y-96965000D02*
X163040000Y-96965000D01*
X163040000Y-90965000D01*
X157040000Y-90965000D01*
X157040000Y-96965000D01*
X157040000Y-84295000D02*
X163040000Y-84295000D01*
X163040000Y-78295000D01*
X157040000Y-78295000D01*
X157040000Y-84295000D01*
X166275000Y-105220000D02*
X162275000Y-105220000D01*
X162275000Y-113220000D01*
X166275000Y-113220000D01*
X166275000Y-105220000D01*
X163275000Y-109220000D02*
G75*
G02*
X141275000Y-109220000I-11000000J0D01*
G01*
X141275000Y-109220000D02*
G75*
G02*
X163275000Y-109220000I11000000J0D01*
G01*
D19*
X134284048Y-91513866D02*
X135045953Y-91513866D01*
X134665000Y-91894819D02*
X134665000Y-91132914D01*
D20*
%TO.C,REF\u002A\u002A*%
X146590000Y-79910000D02*
X153130000Y-79910000D01*
X146590000Y-80240000D02*
X146590000Y-79910000D01*
X146590000Y-82320000D02*
X146590000Y-82650000D01*
X146590000Y-82650000D02*
X153130000Y-82650000D01*
X153130000Y-79910000D02*
X153130000Y-80240000D01*
X153130000Y-82650000D02*
X153130000Y-82320000D01*
X144575000Y-93980000D02*
G75*
G02*
X132375000Y-93980000I-6100000J0D01*
G01*
X132375000Y-93980000D02*
G75*
G02*
X144575000Y-93980000I6100000J0D01*
G01*
X140930000Y-81280000D02*
G75*
G02*
X135930000Y-81280000I-2500000J0D01*
G01*
X135930000Y-81280000D02*
G75*
G02*
X140930000Y-81280000I2500000J0D01*
G01*
X135870000Y-79735170D02*
G75*
G02*
X141420000Y-81280462I2560000J-1544830D01*
G01*
X141420000Y-81279538D02*
G75*
G02*
X135870000Y-82824830I-2990000J-462D01*
G01*
X135870000Y-79735000D02*
X135870000Y-82825000D01*
%TD*%
D21*
X128570000Y-70310000D02*
X168570000Y-70310000D01*
X168570000Y-130310000D01*
X128570000Y-130310000D01*
X128570000Y-70310000D01*
D22*
X163275000Y-113220000D02*
X162275000Y-113220000D01*
X163275000Y-105220000D02*
X162275000Y-105220000D01*
M02*
